<?xml version="1.0" standalone="no"?>
<!DOCTYPE svg PUBLIC "-//W3C//DTD SVG 20010904//EN"
 "http://www.w3.org/TR/2001/REC-SVG-20010904/DTD/svg10.dtd">
<svg version="1.0" xmlns="http://www.w3.org/2000/svg"
 width="640.000000pt" height="640.000000pt" viewBox="0 0 640.000000 640.000000"
 preserveAspectRatio="xMidYMid meet">
<metadata>
Created by potrace 1.11, written by Peter Selinger 2001-2013
</metadata>
<g transform="translate(0.000000,640.000000) scale(0.100000,-0.100000)"
fill="#000000" stroke="none">
<path d="M3690 6150 c-8 -5 -27 -10 -42 -10 -16 0 -28 -3 -28 -7 0 -21 -69
-53 -112 -53 -48 0 -51 -1 -195 -115 -41 -33 -83 -64 -91 -70 -76 -48 -162
-108 -172 -120 -7 -8 -18 -15 -25 -15 -7 0 -24 -9 -39 -21 -43 -34 -105 -63
-201 -97 -49 -17 -133 -47 -186 -65 -53 -19 -127 -40 -165 -47 -38 -7 -88 -19
-112 -26 -23 -8 -55 -14 -69 -14 -75 0 -247 -64 -292 -109 -11 -11 -41 -29
-67 -40 -26 -12 -64 -34 -83 -49 -88 -67 -101 -73 -146 -68 -36 5 -47 1 -70
-20 -15 -14 -34 -23 -41 -20 -8 3 -24 -5 -36 -18 -13 -12 -39 -29 -58 -36 -49
-19 -58 -27 -80 -76 -10 -24 -23 -44 -29 -44 -5 0 -12 -8 -14 -17 -4 -17 -5
-17 -6 0 0 9 -7 17 -13 17 -12 0 -19 -9 -70 -90 -12 -19 -50 -71 -85 -115 -70
-88 -77 -115 -43 -177 20 -38 18 -60 -12 -120 -21 -45 -38 -35 -38 22 0 38 4
50 15 50 17 0 21 25 5 35 -16 10 -56 -18 -93 -66 -43 -57 -51 -82 -37 -109 6
-11 11 -36 12 -55 1 -28 -6 -44 -34 -73 -34 -34 -37 -43 -42 -115 -3 -43 -8
-82 -11 -87 -14 -22 54 -34 86 -15 4 3 12 -2 19 -10 18 -21 3 -88 -29 -132
-26 -37 -27 -39 -13 -75 8 -21 19 -38 23 -38 17 0 27 -71 25 -178 -1 -111 -2
-115 -29 -137 -23 -20 -25 -28 -18 -49 6 -13 19 -27 29 -30 33 -11 99 22 122
61 16 28 25 34 43 29 12 -3 30 -6 40 -6 36 0 6 -75 -42 -103 -16 -9 -41 -39
-56 -65 -23 -40 -26 -54 -21 -100 4 -30 13 -67 21 -82 17 -33 19 -87 5 -124
-8 -22 -14 -25 -39 -20 -28 6 -30 4 -36 -28 -8 -42 25 -116 98 -223 34 -50 35
-87 2 -118 l-26 -23 36 -17 c19 -9 35 -21 35 -27 0 -5 13 -7 29 -4 25 5 29 3
35 -26 6 -35 -6 -60 -30 -60 -17 0 -18 -17 -1 -23 9 -4 9 -6 -1 -6 -9 -1 -9
-8 3 -32 13 -24 21 -30 39 -25 26 6 45 -12 66 -64 26 -64 50 -88 94 -95 66
-10 72 -14 101 -55 15 -21 38 -46 51 -55 21 -14 27 -14 53 -1 34 18 40 44 35
161 -6 136 -3 186 13 226 8 22 19 39 23 39 4 0 17 -26 29 -57 12 -32 30 -67
40 -78 22 -25 51 -104 56 -150 3 -38 42 -105 61 -105 6 0 33 12 60 26 42 22
61 26 126 25 79 -2 118 11 118 38 0 8 16 34 36 58 29 35 33 44 20 49 -9 3 -14
10 -11 14 9 14 -32 22 -80 14 -25 -3 -45 -2 -45 2 0 5 -23 34 -51 64 -49 52
-52 54 -65 35 -13 -17 -16 -18 -24 -5 -5 8 -10 19 -10 23 0 5 -5 5 -11 1 -8
-4 -9 4 -4 27 4 19 8 34 9 34 0 0 10 5 21 11 16 9 19 20 17 54 -4 52 -25 86
-56 94 -12 3 -28 17 -34 31 -6 14 -16 25 -22 25 -5 0 -10 7 -10 15 0 12 13 15
55 15 49 0 57 -3 64 -23 5 -13 32 -38 60 -56 l50 -33 31 19 c17 10 38 33 47
51 15 31 15 34 -6 56 -12 12 -18 27 -14 31 5 5 0 3 -9 -4 -10 -7 -20 -21 -23
-31 -8 -27 -56 -32 -78 -9 -10 10 -22 19 -27 19 -4 0 -14 16 -20 36 -11 33
-14 35 -54 34 -74 -3 -94 0 -110 15 -8 8 -19 15 -25 15 -17 0 -17 83 0 130 9
25 26 50 38 56 12 6 33 21 46 32 13 12 39 29 57 38 18 9 36 21 40 27 3 6 30 8
66 5 61 -6 82 2 82 31 0 8 -7 22 -16 32 -13 14 -21 16 -42 8 -14 -6 -36 -8
-47 -5 -12 3 -31 -1 -43 -10 -14 -10 -50 -16 -94 -18 -63 -2 -75 0 -90 18 -32
39 -24 52 37 54 30 1 64 7 75 14 17 10 22 11 28 0 6 -9 14 -6 31 11 19 21 20
28 10 50 -14 32 -8 51 26 73 25 16 27 16 55 -5 36 -26 45 -26 77 -1 30 24 59
26 67 5 7 -20 52 -19 60 1 5 12 16 15 42 12 30 -4 37 -1 44 18 5 12 13 25 19
28 18 11 22 -13 9 -50 -16 -46 4 -86 47 -94 32 -6 32 -2 19 -102 -5 -38 -2
-52 15 -76 11 -17 21 -41 21 -55 0 -34 20 -88 40 -112 10 -11 21 -30 25 -42 3
-13 13 -23 21 -23 8 0 14 -4 14 -10 0 -5 -7 -10 -15 -10 -17 0 -17 4 -16 -120
2 -129 -26 -218 -86 -273 -36 -33 -43 -46 -43 -78 0 -25 5 -39 13 -39 26 0 38
-60 23 -115 -19 -72 -37 -100 -66 -101 -14 -1 -36 -4 -50 -8 -14 -3 -40 -9
-58 -12 -30 -6 -33 -9 -28 -35 4 -16 8 -42 11 -57 4 -20 0 -35 -15 -52 -11
-12 -20 -31 -20 -41 0 -23 -15 -28 -72 -22 -38 5 -50 2 -69 -16 -16 -15 -34
-21 -54 -19 -16 2 -30 -1 -29 -7 2 -30 18 -75 25 -75 5 0 9 -7 9 -15 0 -9 12
-20 28 -25 101 -37 117 -55 86 -98 -11 -16 -25 -22 -53 -22 -35 0 -39 2 -50
40 -9 31 -17 40 -34 40 -17 0 -26 9 -36 35 -7 19 -9 39 -6 45 3 5 2 10 -4 10
-6 0 -20 10 -31 23 -17 18 -21 33 -19 80 2 53 0 61 -29 90 l-32 32 0 -73 c0
-51 5 -80 17 -98 14 -22 15 -34 5 -85 -9 -48 -8 -75 5 -137 22 -108 21 -116
-5 -127 -19 -8 -22 -18 -23 -65 -2 -95 2 -165 12 -175 5 -5 9 -23 9 -40 1 -16
7 -41 14 -54 l13 -24 19 32 c10 17 23 31 29 31 6 0 18 9 28 20 13 15 29 20 67
20 30 0 50 -4 50 -11 0 -6 7 -8 16 -5 8 3 12 2 9 -4 -3 -6 -13 -10 -21 -10 -8
0 -22 -16 -31 -35 -9 -19 -20 -35 -24 -35 -4 0 -10 -10 -13 -23 -7 -21 -7 -21
-15 -2 -7 18 -10 17 -25 -14 -11 -20 -14 -36 -8 -40 5 -3 12 -19 16 -35 5 -21
10 -26 16 -17 6 11 12 9 26 -8 12 -13 30 -21 50 -21 27 0 32 -5 44 -40 7 -22
19 -40 27 -40 7 0 13 -9 13 -19 0 -11 5 -23 10 -26 13 -8 13 -35 1 -35 -5 0
-11 10 -13 23 l-3 22 -20 -22 c-23 -27 -55 -30 -55 -7 0 11 -5 14 -16 10 -9
-3 -18 -6 -20 -6 -11 0 -2 -22 16 -40 13 -13 33 -20 60 -20 33 0 40 -3 40 -20
0 -11 7 -20 15 -20 8 0 15 -6 15 -12 0 -7 12 -35 25 -63 14 -27 25 -56 25 -63
0 -7 6 -20 14 -28 22 -21 23 -394 1 -394 -12 0 -11 -6 4 -33 10 -17 22 -49 25
-69 4 -21 13 -44 21 -52 8 -8 15 -19 15 -24 0 -10 55 -28 113 -37 28 -4 49
-18 83 -55 46 -50 47 -50 109 -50 l62 0 7 40 c3 22 11 40 16 40 6 0 10 9 10
19 0 11 5 23 11 27 6 3 8 15 6 25 -4 14 3 23 21 33 22 11 45 11 127 0 55 -7
113 -16 129 -20 27 -6 28 -5 24 17 -3 13 -9 32 -13 42 -6 15 0 17 53 17 60 0
61 0 83 -40 13 -22 26 -40 31 -40 4 0 8 -6 8 -14 0 -8 12 -17 26 -20 30 -8 30
-39 -1 -45 -11 -2 -23 -8 -27 -15 -6 -8 -11 -7 -18 4 -8 13 -14 10 -35 -15
-13 -16 -24 -36 -25 -42 0 -10 90 -13 415 -13 l416 0 62 32 c34 17 85 35 112
39 28 4 68 18 90 33 21 15 64 34 94 42 31 9 70 23 86 32 17 8 46 19 65 23 37
8 209 73 274 104 40 19 96 86 96 114 0 9 15 34 33 56 30 37 32 44 30 108 -5
121 -21 197 -53 241 -17 22 -30 48 -30 58 0 21 16 87 42 177 22 78 23 144 2
225 -9 33 -16 76 -16 94 2 42 66 165 106 200 66 59 98 97 123 146 22 42 26 63
25 122 -2 87 7 99 100 143 97 46 141 89 157 151 10 39 11 57 2 73 -10 20 -39
90 -89 212 -38 94 -72 210 -72 246 0 26 8 43 28 62 16 15 39 49 52 75 39 79
122 222 130 222 13 0 60 120 60 153 0 18 -20 72 -45 122 -30 59 -48 109 -52
145 -3 30 -12 64 -19 75 -8 11 -14 29 -14 40 0 11 -6 45 -14 75 -8 30 -17 129
-20 220 -6 183 -17 268 -38 320 -8 20 -18 58 -22 85 -4 28 -18 67 -32 87 -13
21 -24 43 -24 49 0 7 -18 45 -40 85 -22 40 -40 82 -40 92 0 10 -9 27 -20 37
-22 19 -62 101 -74 150 -4 17 -17 40 -29 53 -18 19 -23 39 -26 100 -7 147 -4
190 18 214 35 37 37 59 6 86 -18 15 -35 22 -50 18 -17 -4 -23 1 -34 30 -8 21
-10 51 -6 74 12 73 -2 116 -63 188 -59 70 -152 161 -181 176 -9 5 -29 21 -46
37 -16 16 -59 50 -95 76 -36 26 -67 51 -70 55 -20 28 -144 91 -224 115 -27 8
-68 27 -90 41 -57 37 -86 52 -100 52 -7 0 -31 9 -55 21 -23 11 -78 24 -121 29
-44 5 -88 14 -99 20 -24 12 -32 12 -51 0z m-90 -1009 c0 -17 8 -19 60 -18 43
0 60 4 60 13 0 19 47 29 65 14 9 -8 15 -30 15 -59 0 -40 -5 -50 -35 -78 -40
-37 -46 -59 -12 -49 12 4 37 9 55 13 l32 6 0 -52 c0 -34 4 -51 13 -51 7 0 17
-10 22 -22 17 -38 52 -36 152 10 42 18 59 11 80 -34 17 -35 17 -37 -4 -75 -13
-24 -17 -39 -10 -39 7 0 17 -10 22 -22 12 -29 52 -34 114 -17 55 16 164 15
169 0 2 -6 11 -11 20 -11 20 -1 72 -29 54 -30 -24 0 -72 -43 -72 -64 0 -26
-68 -96 -93 -96 -24 0 -67 -40 -67 -62 0 -14 -9 -18 -39 -18 l-39 0 -5 -57
c-2 -32 -3 -61 0 -65 2 -5 22 -8 44 -8 35 0 39 3 39 25 0 23 4 25 40 25 l40 0
0 -40 c0 -33 -3 -40 -20 -40 -25 0 -25 -7 0 -47 17 -28 26 -33 58 -33 31 0 45
7 77 40 21 22 48 40 58 40 18 0 19 -5 14 -63 -3 -34 -9 -70 -12 -80 -9 -23
-47 -22 -68 3 -12 15 -29 20 -62 20 -38 0 -45 -3 -45 -20 0 -13 -7 -20 -20
-20 -17 0 -20 -7 -20 -40 0 -33 -3 -40 -19 -40 -13 0 -21 8 -23 22 -3 21 -4
21 -20 4 -22 -22 -22 -30 -2 -50 10 -10 33 -16 65 -16 37 0 53 -5 66 -20 10
-11 27 -20 38 -21 11 -1 1 -5 -22 -11 -31 -6 -43 -14 -43 -27 0 -9 -13 -27
-30 -39 -31 -24 -50 -28 -50 -12 0 6 -17 10 -37 10 -35 0 -40 -4 -59 -44 -23
-48 -18 -68 16 -70 26 -1 51 -32 35 -44 -15 -10 -35 -49 -35 -67 0 -8 -4 -15
-9 -15 -5 0 -17 -24 -27 -52 -9 -29 -21 -59 -26 -65 -12 -15 -66 -43 -82 -43
-6 0 -17 -12 -23 -27 -7 -16 -22 -43 -33 -60 -18 -30 -24 -33 -70 -33 -48 0
-50 -1 -50 -29 0 -16 -7 -45 -16 -66 -17 -43 -13 -65 14 -65 18 0 42 -18 42
-32 0 -4 -9 -8 -19 -8 -11 0 -21 -6 -24 -12 -3 -10 -7 -10 -20 0 -25 21 -40
-19 -32 -86 9 -70 23 -102 47 -102 10 0 33 -8 51 -17 25 -13 28 -18 15 -21
-14 -3 -18 -13 -18 -43 0 -21 -4 -39 -10 -39 -5 0 -10 -6 -10 -12 0 -19 -45
-68 -63 -68 -8 0 -17 -7 -21 -15 -7 -19 -30 -19 -45 -1 -7 8 -25 14 -41 14
-26 -1 -28 -3 -17 -27 6 -14 21 -40 34 -58 22 -31 23 -34 9 -68 -12 -27 -21
-35 -40 -35 -15 0 -30 8 -36 21 -7 11 -27 27 -47 35 -29 13 -33 17 -22 30 6 8
9 17 5 21 -3 3 1 15 11 25 15 17 15 19 -2 38 -16 18 -16 20 -2 20 10 0 17 7
17 17 0 15 -2 15 -19 -1 -11 -10 -30 -17 -43 -16 -45 4 -57 0 -64 -22 -16 -46
-11 -71 17 -87 25 -14 43 -53 31 -65 -2 -3 -14 1 -26 9 -11 8 -28 15 -38 15
-14 0 -18 8 -18 39 0 31 -7 46 -36 75 -20 20 -40 36 -45 36 -5 0 -14 12 -19
26 -6 14 -19 28 -29 31 -21 5 -81 83 -81 105 0 8 -15 30 -33 49 -40 42 -57 86
-57 145 0 24 -4 44 -10 44 -5 0 -10 24 -10 53 0 51 1 53 33 65 18 7 41 12 50
12 39 0 53 107 17 137 -11 10 -20 23 -20 31 0 7 -7 15 -15 18 -22 9 -33 63
-25 124 4 30 6 111 4 180 l-3 125 -32 5 c-38 6 -61 36 -49 66 10 26 84 48 111
33 34 -18 52 -11 45 16 -15 62 -16 71 -7 84 6 9 27 13 62 12 77 -1 126 35 121
89 0 3 -4 13 -7 22 -9 22 87 115 130 126 39 11 42 31 11 81 l-26 40 21 36 c12
19 26 36 32 36 7 1 23 2 37 3 20 1 24 6 23 24 -2 12 2 22 8 22 8 0 7 5 -1 15
-7 8 -19 15 -26 15 -21 0 -17 40 8 88 l23 42 -20 38 c-11 20 -29 38 -40 40
-23 3 -72 82 -50 82 8 0 15 18 20 46 5 36 12 49 36 62 31 18 35 27 19 37 -5 3
-10 19 -10 34 0 15 -7 36 -15 47 -19 25 -19 54 0 54 8 0 15 -9 15 -19z m-40
-541 c0 -5 -13 -10 -30 -10 -16 0 -30 5 -30 10 0 6 14 10 30 10 17 0 30 -4 30
-10z m-2372 -177 c5 -17 -26 -29 -40 -15 -6 6 -7 15 -3 22 9 14 37 9 43 -7z
m2182 8 c0 -5 -7 -16 -15 -25 -8 -8 -15 -19 -15 -24 0 -36 -88 -36 -97 0 -3
10 -14 18 -24 18 -30 0 -22 16 14 28 41 13 137 15 137 3z m1191 -71 c10 -6 19
-17 19 -25 0 -7 5 -15 11 -17 8 -3 7 -13 -5 -35 -14 -27 -19 -30 -43 -24 -23
6 -28 13 -29 42 -3 66 8 79 47 59z m-3508 -90 c23 -27 22 -47 -4 -60 -37 -21
-62 18 -39 61 13 24 21 24 43 -1z m2152 10 c13 -21 -24 -60 -55 -60 -28 0 -45
20 -17 20 6 0 4 5 -5 11 -10 5 -18 14 -18 19 0 18 85 27 95 10z m-182 -47
c-13 -2 -33 -2 -45 0 -13 2 -3 4 22 4 25 0 35 -2 23 -4z m82 -103 c7 -33 1
-50 -21 -50 -10 0 -14 12 -14 40 0 48 25 56 35 10z m-1914 -180 c13 -42 2 -70
-27 -70 -7 0 -18 -10 -25 -22 -9 -17 -13 -19 -20 -7 -9 17 40 151 52 143 5 -3
14 -23 20 -44z m539 -130 c0 -5 -5 -10 -11 -10 -5 0 -7 5 -4 10 3 6 8 10 11
10 2 0 4 -4 4 -10z m-384 -65 c-15 -15 -16 -15 -16 3 0 10 3 22 7 26 4 3 11 2
16 -3 6 -6 4 -16 -7 -26z m244 -17 c0 -22 -14 -36 -44 -44 -27 -6 -27 -6 -14
17 21 38 58 55 58 27z m-446 -126 c-12 -26 -18 -31 -25 -21 -10 16 -12 84 -2
119 6 23 8 21 25 -20 18 -41 18 -46 2 -78z m174 66 c-4 -49 -28 -66 -28 -20 0
37 9 62 22 62 5 0 8 -19 6 -42z m674 21 c15 -8 16 -12 5 -23 -7 -7 -21 -31
-31 -54 -12 -26 -27 -43 -42 -46 -13 -4 -31 -17 -40 -31 -13 -20 -24 -25 -60
-25 -39 0 -46 3 -55 27 -23 61 -84 83 -95 36 -6 -26 -48 -73 -64 -73 -4 0 -10
-9 -13 -20 -7 -26 -37 -26 -37 0 0 49 61 130 97 130 13 0 23 6 23 14 0 9 17
16 49 21 29 4 57 15 67 26 9 10 23 19 31 19 7 0 13 5 13 11 0 14 122 4 152
-12z m-526 -47 c12 -7 15 -104 4 -112 -13 -10 -50 -100 -50 -122 0 -13 -4 -38
-10 -57 -14 -49 7 -170 34 -196 19 -18 21 -33 24 -138 3 -133 -4 -146 -57
-106 -41 30 -42 36 -50 217 -1 7 -17 20 -36 28 -31 12 -35 19 -35 50 0 48 15
73 56 90 34 14 42 28 24 39 -5 3 -9 46 -9 95 0 85 2 91 30 121 16 17 32 43 35
58 11 43 17 48 40 33z m-196 -152 c0 -23 -10 -26 -28 -8 -18 18 -15 28 8 28
13 0 20 -7 20 -20z m497 -2 c-3 -8 -6 -5 -6 6 -1 11 2 17 5 13 3 -3 4 -12 1
-19z m-127 -251 c0 -12 -4 -28 -9 -35 -11 -18 -21 19 -14 48 7 25 23 16 23
-13z m195 -77 c3 -5 -1 -10 -9 -10 -9 0 -16 5 -16 10 0 6 4 10 9 10 6 0 13 -4
16 -10z m-195 -77 c0 -39 -4 -53 -14 -53 -19 0 -31 83 -15 111 16 31 29 7 29
-58z m-410 -23 c0 -5 -4 -10 -10 -10 -5 0 -10 5 -10 10 0 6 5 10 10 10 6 0 10
-4 10 -10z m3758 -42 c3 -24 0 -28 -20 -28 -13 0 -29 4 -37 9 -10 7 -28 2 -55
-14 -23 -13 -56 -26 -73 -30 -18 -4 -35 -11 -38 -16 -8 -12 -45 -12 -45 0 0 6
-12 9 -27 8 -24 -2 -28 1 -25 23 2 14 6 27 8 29 4 5 74 20 136 30 26 4 51 11
55 15 4 4 32 6 63 4 52 -3 55 -5 58 -30z m-3248 -93 c18 -19 21 -27 11 -39 -9
-11 -9 -15 1 -20 7 -3 -7 -4 -32 -3 -43 2 -45 3 -43 30 2 28 19 57 32 57 4 0
18 -11 31 -25z m-145 -63 c-3 -3 -11 0 -18 7 -9 10 -8 11 6 5 10 -3 15 -9 12
-12z m4 -61 c8 -14 7 -22 -4 -31 -17 -14 -35 -5 -35 19 0 34 24 42 39 12z
m161 -36 c0 -26 -14 -31 -39 -16 -19 12 -6 41 19 41 15 0 20 -7 20 -25z m2960
-115 c0 -17 7 -20 40 -20 33 0 40 3 40 20 0 18 7 20 55 20 49 0 57 -3 64 -22
5 -13 5 -30 0 -39 -10 -20 10 -89 28 -96 43 -17 -12 -32 -144 -40 -61 -3 -83
-1 -83 7 0 9 -4 9 -15 0 -13 -10 -19 -10 -33 4 -10 9 -25 16 -34 16 -8 0 -27
9 -40 20 l-25 19 27 55 c15 29 31 59 34 65 4 6 25 11 47 11 32 0 39 -3 39 -20z
m312 -16 c26 -9 39 -86 17 -99 -16 -10 -38 26 -39 63 0 17 -4 32 -10 32 -5 0
-10 5 -10 11 0 6 6 8 13 5 6 -3 19 -9 29 -12z m-3708 -179 c3 -9 -1 -18 -10
-22 -19 -7 -28 2 -21 22 8 19 23 19 31 0z m783 -71 c-3 -3 -12 -4 -19 -1 -8 3
-5 6 6 6 11 1 17 -2 13 -5z m1425 -156 c-9 -9 -12 -7 -12 12 0 19 3 21 12 12
9 -9 9 -15 0 -24z m1623 16 c12 -12 13 -19 4 -30 -20 -24 -50 -27 -85 -8 l-34
18 43 18 c53 21 52 21 72 2z m-1235 -159 c0 -8 -9 -15 -20 -15 -20 0 -26 11
-13 23 12 13 33 7 33 -8z m-675 -95 c-18 -6 -65 -2 -65 6 0 13 47 20 65 11 19
-10 19 -10 0 -17z m-327 -112 c19 -19 14 -28 -13 -28 -18 0 -25 5 -25 20 0 22
20 26 38 8z m1053 -39 c8 -16 8 -23 -1 -29 -6 -4 -15 -32 -18 -61 -7 -51 -9
-54 -38 -57 -18 -2 -36 3 -43 11 -13 16 -5 47 13 47 6 0 17 15 25 33 15 34 41
77 47 77 2 0 8 -10 15 -21z m-2031 -320 c0 -5 -4 -9 -10 -9 -5 0 -10 7 -10 16
0 8 5 12 10 9 6 -3 10 -10 10 -16z m885 -195 c13 -5 14 -8 3 -15 -19 -13 -28
-11 -28 6 0 17 2 18 25 9z m77 -1031 c-9 -46 -22 -21 -21 40 l1 62 12 -39 c7
-22 11 -50 8 -63z m102 -45 c-3 -5 -12 -4 -20 3 -7 6 -11 15 -8 21 3 5 12 4
20 -3 7 -6 11 -15 8 -21z"/>
<path d="M3814 4815 c-13 -51 17 -72 52 -37 17 16 17 17 -4 20 -14 2 -22 10
-22 23 0 28 -18 23 -26 -6z"/>
<path d="M3904 4671 c-2 -2 -4 -10 -4 -18 0 -9 17 -13 61 -13 52 0 60 2 50 14
-11 13 -97 27 -107 17z"/>
<path d="M3750 4280 c0 -11 5 -20 10 -20 6 0 10 9 10 20 0 11 -4 20 -10 20 -5
0 -10 -9 -10 -20z"/>
<path d="M3262 3963 c-17 -3 -22 -10 -20 -26 4 -29 38 -36 38 -8 0 12 5 21 10
21 6 0 10 5 10 10 0 6 -3 9 -7 9 -5 -1 -18 -4 -31 -6z"/>
<path d="M3601 2784 c0 -11 3 -14 6 -6 3 7 2 16 -1 19 -3 4 -6 -2 -5 -13z"/>
<path d="M2059 3424 c-10 -13 -10 -17 1 -24 17 -10 40 5 40 26 0 19 -25 18
-41 -2z"/>
<path d="M973 3334 c-8 -21 13 -42 28 -27 13 13 5 43 -11 43 -6 0 -13 -7 -17
-16z"/>
<path d="M2065 3190 c3 -5 8 -10 11 -10 2 0 4 5 4 10 0 6 -5 10 -11 10 -5 0
-7 -4 -4 -10z"/>
<path d="M2103 3143 c-7 -27 -71 -57 -89 -42 -8 6 -14 20 -14 30 0 11 -3 19
-7 19 -9 0 -53 -51 -53 -61 0 -12 38 -30 58 -28 31 3 43 -1 41 -13 -4 -35 3
-85 15 -101 8 -10 28 -20 45 -22 31 -4 31 -4 31 41 0 87 33 117 125 111 21 -1
30 3 30 13 0 9 -9 15 -22 14 -13 0 -23 4 -23 9 0 5 -9 7 -20 4 -11 -3 -26 0
-33 7 -16 17 -53 36 -67 36 -7 0 -14 -8 -17 -17z"/>
<path d="M1885 1150 c-9 -14 4 -307 16 -335 8 -22 13 60 12 221 -1 91 -12 139
-28 114z"/>
<path d="M1673 970 c0 -36 2 -50 4 -32 2 17 2 47 0 65 -2 17 -4 3 -4 -33z"/>
<path d="M1647 593 c-4 -3 -7 -48 -7 -100 0 -86 -1 -93 -20 -93 -13 0 -20 -7
-20 -20 0 -11 -7 -20 -16 -20 -11 0 -14 -8 -12 -32 4 -43 28 -50 28 -8 0 36
34 80 63 80 15 0 17 11 17 100 0 77 -3 100 -13 100 -8 0 -17 -3 -20 -7z"/>
<path d="M1542 524 c-15 -11 -22 -25 -22 -50 0 -33 1 -34 39 -34 l39 0 0 50
c1 55 -13 64 -56 34z"/>
<path d="M1301 284 c0 -11 3 -14 6 -6 3 7 2 16 -1 19 -3 4 -6 -2 -5 -13z"/>
<path d="M1920 219 c0 -11 5 -17 10 -14 6 3 10 13 10 21 0 8 -4 14 -10 14 -5
0 -10 -9 -10 -21z"/>
<path d="M2952 141 c12 -20 33 -18 42 5 4 10 -3 14 -24 14 -27 0 -29 -2 -18
-19z"/>
<path d="M2946 92 c-4 -7 -21 -12 -37 -12 -17 0 -45 -11 -62 -24 -18 -13 -41
-26 -51 -27 -11 -2 -21 -10 -24 -16 -3 -10 25 -13 117 -13 67 0 121 3 121 7 0
21 -26 73 -36 73 -7 0 -14 5 -16 12 -3 9 -6 9 -12 0z"/>
</g>
</svg>
